<?xml version="1.0" ?><svg viewBox="0 0 60 60" xmlns="http://www.w3.org/2000/svg"><title/><g data-name="Layer 1" id="Layer_1"><path d="M11,38H3a1,1,0,0,0-1,1v1.4241a.99043.99043,0,0,0,.596.90828A4.00494,4.00494,0,0,1,5,45v7H3a1,1,0,0,0,0,2H8.10107A5.01454,5.01454,0,0,1,12,50.10107V39A1,1,0,0,0,11,38Z"/><rect height="8" width="7" x="35" y="42"/><rect height="8" width="7" x="26" y="42"/><rect height="8" width="2" x="44" y="42"/><path d="M50,43h2V39a1,1,0,0,0-1-1h0a1,1,0,0,0-1,1Z"/><path d="M48,42v8h6V45a1,1,0,0,0,0-2V42Z"/><path d="M24.223,22.99693a7.47155,7.47155,0,0,0,3.318-.88511A1.00017,1.00017,0,0,1,29,23a4.68031,4.68031,0,0,0,2.30176,3.30176,6.776,6.776,0,0,0,6.285.78626,1.05913,1.05913,0,0,1,1.31611.48108C39.6378,29.00079,42.169,29,43.00137,29l.306.04832c2.58365.85737,4.76152,3.13906,6.12769,6.32978A1.00606,1.00606,0,0,0,50.35485,36h.37856a.99769.99769,0,0,0,.98352-1.20442c-.66476-2.97831-2.50331-6.89789-5.33718-9.01127A.96548.96548,0,0,1,46,24.995a4.00561,4.00561,0,0,0-3.95087-3.99471,1.085,1.085,0,0,1-1.03-.80589c-.89-4.44781-3.37816-6.09957-7.82286-5.214a.99963.99963,0,0,1-1.19043-.87061A8.03957,8.03957,0,1,0,24.223,22.99693Z"/><rect height="9" width="10" x="14" y="41"/><path d="M56.94171,54H57a1,1,0,0,0,0-2H14.07422l.0174.00928C14.06042,52.00854,14.03137,52,14,52a4,4,0,1,0,4,4,3.95433,3.95433,0,0,0-.55621-2h4.11243A3.95433,3.95433,0,0,0,21,56a4,4,0,0,0,8,0,3.95433,3.95433,0,0,0-.55621-2h4.11243A3.95433,3.95433,0,0,0,32,56a4,4,0,0,0,8,0,3.95433,3.95433,0,0,0-.55621-2h3.6145a3.5,3.5,0,1,0,4.88342,0h4.11658a3.5,3.5,0,1,0,4.88342,0ZM45.5,58A1.5,1.5,0,1,1,47,56.5,1.50164,1.50164,0,0,1,45.5,58ZM14,58a2,2,0,1,1,2-2A2.00261,2.00261,0,0,1,14,58Zm13-2a2,2,0,1,1-2-2A2.00261,2.00261,0,0,1,27,56Zm11,0a2,2,0,1,1-2-2A2.00261,2.00261,0,0,1,38,56Zm16.5,2A1.5,1.5,0,1,1,56,56.5,1.50164,1.50164,0,0,1,54.5,58Z"/></g></svg>