<?xml version="1.0" ?><!DOCTYPE svg  PUBLIC '-//W3C//DTD SVG 1.1//EN'  'http://www.w3.org/Graphics/SVG/1.1/DTD/svg11.dtd'><svg enable-background="new 0 0 24 24" height="24px" id="Layer_1" version="1.1" viewBox="0 0 24 24" width="24px" xml:space="preserve" xmlns="http://www.w3.org/2000/svg" xmlns:xlink="http://www.w3.org/1999/xlink"><path d="M23,22H13v-2h8l-4-6h2l-4-6h2l-5-7L7,8h2l-4,6h2l-4,6h8v2H1c-0.6,0-1,0.4-1,1v1h24v-1C24,22.4,23.6,22,23,22z M4.9,19l4-6  h-2l4-6H9H8.9L12,2.7L15.1,7H15h-1.9l4,6h-2l1,1.6l3,4.4H13h-2H4.9z"/></svg>